<?xml version="1.0" standalone="no"?><!DOCTYPE svg PUBLIC "-//W3C//DTD SVG 1.1//EN" "http://www.w3.org/Graphics/SVG/1.1/DTD/svg11.dtd"><svg t="1684743605082" class="icon" viewBox="0 0 1024 1024" version="1.1" xmlns="http://www.w3.org/2000/svg" p-id="5871" xmlns:xlink="http://www.w3.org/1999/xlink" width="200" height="200"><path d="M512 66.99074c-246.708891 0-446.708971 200.00008-446.708971 446.708972s200.00008 446.708971 446.708971 446.708971c246.712985 0 446.708971-200.00008 446.708971-446.708971S758.712985 66.99074 512 66.99074z m-35.381835 656.002718l-195.299011-0.066514c-8.728802-0.435928-24.215518-24.76094-24.580839-38.331004l0.004094-328.414775 17.395182 0.004093s0.004093 211.178677 0.004093 314.812989c76.906577 12.502755 146.187477 23.817452 215.771275 35.133172-0.002047 0.001023-7.966439 16.741289-13.294794 16.862039z m24.471344-36.207643c-96.907097-37.372166-198.434421-29.449729-198.434421-29.449729l0.159636-27.234271s-0.159636-211.081463-0.159636-325.69585c44.925189 4.77577 84.455507 6.687306 123.065873 13.656021 50.093908 9.036817 77.844949 33.367969 75.43097 92.965321l-0.062422 275.758508z m23.25361-275.758508c-2.410909-59.597353 25.328875-83.929528 75.41869-92.965321 38.626739-6.967692 78.157058-8.880251 123.069967-13.656021 0 114.614387-0.151449 325.69585-0.151449 325.69585l0.151449 27.234271s-101.519138-7.922437-198.426235 29.449729l-0.062422-275.758508z m219.135906 311.899637l-196.303898 0.066514c-5.320169-0.12075-13.300934-16.861016-13.300934-16.861016 69.583798-11.314697 139.876748-22.630417 216.784349-35.133172V356.186282h16.561187l0.042979 328.410681c-0.366344 13.570063-15.042601 37.894052-23.783683 38.329981z" fill="#13227a" p-id="5872"></path></svg>