<?xml version="1.0" standalone="no"?><!DOCTYPE svg PUBLIC "-//W3C//DTD SVG 1.1//EN" "http://www.w3.org/Graphics/SVG/1.1/DTD/svg11.dtd"><svg t="1684744407062" class="icon" viewBox="0 0 1024 1024" version="1.1" xmlns="http://www.w3.org/2000/svg" p-id="6376" xmlns:xlink="http://www.w3.org/1999/xlink" width="200" height="200"><path d="M1011.2 832l-140.8-256c-6.4-12.8-25.6-19.2-44.8-12.8-12.8 6.4-19.2 25.6-12.8 44.8l140.8 256c6.4 12.8 6.4 19.2 6.4 19.2H524.8l51.2-57.6c12.8-12.8 12.8-32-6.4-44.8-12.8-12.8-32-6.4-44.8 6.4l-83.2 102.4c-12.8 12.8-12.8 32 6.4 44.8l102.4 83.2c0 6.4 6.4 6.4 12.8 6.4s19.2-6.4 25.6-12.8c12.8-12.8 12.8-32-6.4-44.8l-25.6-25.6h396.8c25.6 0 44.8-12.8 57.6-32 12.8-6.4 19.2-32 0-76.8zM704 403.2l-44.8-12.8c-19.2-6.4-32 0-38.4 19.2-6.4 12.8 0 32 19.2 38.4l121.6 44.8h12.8c12.8 0 25.6-6.4 32-19.2l44.8-121.6c6.4-19.2 0-32-19.2-38.4-19.2-6.4-32 0-38.4 19.2l-25.6 64L569.6 38.4C556.8 12.8 537.6 0 512 0c-19.2 0-38.4 12.8-51.2 38.4L339.2 249.6c-6.4 12.8 0 32 12.8 44.8 12.8 6.4 32 0 44.8-12.8L512 70.4l192 332.8z m-390.4-6.4c0-6.4-6.4-12.8-12.8-19.2-6.4-6.4-12.8-6.4-25.6 0l-128 38.4c-12.8 0-25.6 12.8-19.2 32 6.4 12.8 19.2 25.6 32 25.6h6.4l57.6-19.2-217.6 390.4v6.4c-6.4 25.6-6.4 51.2 12.8 70.4 12.8 19.2 32 25.6 57.6 25.6h236.8c19.2 0 32-12.8 32-32s-12.8-32-32-32H70.4 64v-12.8l211.2-377.6 12.8 51.2c6.4 6.4 19.2 19.2 32 19.2h6.4c19.2-6.4 25.6-19.2 19.2-38.4l-32-128z" fill="#5fc466" p-id="6377"></path></svg>