<?xml version="1.0" standalone="no"?><!DOCTYPE svg PUBLIC "-//W3C//DTD SVG 1.1//EN" "http://www.w3.org/Graphics/SVG/1.1/DTD/svg11.dtd"><svg t="1684489898546" class="icon" viewBox="0 0 1024 1024" version="1.1" xmlns="http://www.w3.org/2000/svg" p-id="7993" xmlns:xlink="http://www.w3.org/1999/xlink" width="200" height="200"><path d="M514.4 897.1c-211 0-382.7-171.7-382.7-382.7s171.7-382.7 382.7-382.7 382.7 171.7 382.7 382.7-171.7 382.7-382.7 382.7z m0-757C308 140.1 140.1 308 140.1 514.4S308 888.7 514.4 888.7s374.3-167.9 374.3-374.3-167.9-374.3-374.3-374.3z" fill="#0E4998" p-id="7994"></path><path d="M512 950.6C270.2 950.6 73.4 753.8 73.4 512S270.2 73.4 512 73.4 950.6 270.2 950.6 512 753.8 950.6 512 950.6z m0-864.7C277 85.9 85.9 277 85.9 512S277 938.1 512 938.1 938.1 747 938.1 512 747 85.9 512 85.9z" fill="#0E4998" p-id="7995"></path><path d="M512 996.8C244.6 996.8 27.2 779.3 27.2 512S244.6 27.2 512 27.2 996.8 244.6 996.8 512 779.3 996.8 512 996.8z m0-952.9c-258.1 0-468.1 210-468.1 468.1s210 468.1 468.1 468.1 468.1-210 468.1-468.1S770.1 43.9 512 43.9z" fill="#0E4998" p-id="7996"></path><path d="M207.9 878.7L514 530.1l318.7 336.4L514.7 77z" fill="#0E4998" p-id="7997"></path><path d="M351.5 825.1c-7.9-9.4-11.9-22.1-11.9-38.2s4-28.9 11.9-38.3 18.7-14.1 32.4-14.1c10.6 0 19.7 3 27.3 9.1 7.5 6.1 12 14 13.4 23.7h-13.2c-1.6-6.4-4.9-11.4-9.8-15.2-4.9-3.8-10.8-5.6-17.6-5.6-9.5 0-17.1 3.6-22.6 10.9-5.6 7.3-8.3 17.1-8.3 29.5 0 12.3 2.8 22.1 8.4 29.4s13.1 10.9 22.6 10.9c6.9 0 12.8-1.7 17.7-5 4.9-3.4 8.1-7.9 9.7-13.6h13.2c-1.6 9.3-6.1 16.8-13.5 22.3s-16.4 8.3-27.1 8.3c-13.8 0-24.6-4.7-32.6-14.1zM509.9 836.9c-2-5.7-3.7-10.5-5-14.1-1.3-3.7-2.9-8.4-4.9-14.2h-39.4l-9.9 28.3h-13.6l36.7-100H487l36.7 100h-13.8z m-30.3-83.5c-2.1 6-3.9 11.1-5.4 15.6-1.5 4.4-3.1 8.8-4.6 13.2-1.5 4.4-3.3 9.5-5.5 15.5h32l-15.4-44.2h-1.1zM535.8 810.5H549c0.8 5.2 3.5 9.3 8 12.3 4.6 3 10.3 4.5 17.4 4.5 6.7 0 12.2-1.6 16.6-4.8 4.3-3.2 6.5-7.2 6.5-12 0-4.2-1.6-7.7-4.8-10.4-3.2-2.7-8.2-4.9-15.1-6.7l-12.8-3.3c-9.1-2.3-15.7-5.6-19.8-9.9-4.1-4.3-6.2-10-6.2-17.2 0-8.6 3.3-15.5 9.8-20.8 6.5-5.3 15.1-7.9 25.8-7.9 9.7 0 17.9 2.6 24.5 7.8 6.6 5.2 10.1 11.9 10.5 20.1h-13c-0.8-5-3.2-9-7.2-11.8-3.9-2.8-9-4.3-15.2-4.3-6.5 0-11.8 1.5-15.8 4.5s-6 6.9-6 11.9c0 3.9 1.5 7 4.4 9.4 2.9 2.4 7.8 4.5 14.6 6.2l10.6 2.8c10.3 2.5 17.7 6 22.2 10.3 4.5 4.3 6.8 10.2 6.8 17.6 0 9.3-3.4 16.7-10.2 22.1-6.8 5.4-15.9 8.2-27.4 8.2-10.7 0-19.4-2.6-26.2-7.8-6.9-5.1-10.6-12-11.2-20.8zM638.8 825.1c-7.9-9.4-11.9-22.1-11.9-38.2s4-28.9 11.9-38.3c7.9-9.4 18.7-14.1 32.4-14.1 10.6 0 19.7 3 27.3 9.1 7.5 6.1 12 14 13.4 23.7h-13.2c-1.6-6.4-4.9-11.4-9.8-15.2-4.9-3.8-10.8-5.6-17.6-5.6-9.5 0-17.1 3.6-22.6 10.9-5.6 7.3-8.3 17.1-8.3 29.5 0 12.3 2.8 22.1 8.4 29.4 5.6 7.3 13.1 10.9 22.6 10.9 6.9 0 12.8-1.7 17.7-5 4.9-3.4 8.1-7.9 9.7-13.6H712c-1.6 9.3-6.1 16.8-13.5 22.3s-16.4 8.3-27.1 8.3c-13.9 0-24.7-4.7-32.6-14.1z" fill="#0E4998" p-id="7998"></path></svg>