<?xml version="1.0" standalone="no"?><!DOCTYPE svg PUBLIC "-//W3C//DTD SVG 1.1//EN" "http://www.w3.org/Graphics/SVG/1.1/DTD/svg11.dtd"><svg t="1684738973043" class="icon" viewBox="0 0 1024 1024" version="1.1" xmlns="http://www.w3.org/2000/svg" p-id="3258" xmlns:xlink="http://www.w3.org/1999/xlink" width="200" height="200"><path d="M549.077 283.809H350.01v460.195h100.596V583.473h98.471c114.13 2.878 169.808-47.087 166.951-149.832 1.397-99.867-54.239-149.832-166.952-149.832z m-19.269 233.309h-79.2v-169.1h79.2c57.056-1.399 84.895 27.13 83.475 85.623 2.838 57.097-24.98 84.916-83.475 83.477z m-24.71 357.823c-180.592 0-331.028-131.522-360.558-303.813l36.39-7.07-78.138-103.055-41.227 126.245 32.28-6.276c14.536 84.143 54.49 161.634 116.135 223.235 78.825 78.849 183.634 122.243 295.117 122.243 138.843 0 268.216-68.773 346.044-183.988l-42.689-28.842C740.2 814.634 626.798 874.941 505.097 874.941z m415.567-404.597c-8.885-96.843-50.842-186.743-120.472-256.352-78.826-78.847-183.632-122.243-295.096-122.243-138.883 0-268.258 68.774-346.084 183.989l42.709 28.84c68.232-101.013 181.635-161.321 303.375-161.321 187.347 0 342.205 141.574 363.352 323.354l-33.7-2.398 48.67 119.823 72.634-111.17-35.388-2.522z" fill="#d4237a" p-id="3259"></path></svg>