<?xml version="1.0" standalone="no"?><!DOCTYPE svg PUBLIC "-//W3C//DTD SVG 1.1//EN" "http://www.w3.org/Graphics/SVG/1.1/DTD/svg11.dtd"><svg t="1684507195429" class="icon" viewBox="0 0 1024 1024" version="1.1" xmlns="http://www.w3.org/2000/svg" p-id="1962" xmlns:xlink="http://www.w3.org/1999/xlink" width="200" height="200"><path d="M428.672 478.592h-151.893333a27.733333 27.733333 0 0 0 0 55.466667h151.893333a27.733333 27.733333 0 0 0 0-55.466667z m0 183.466667h-151.893333a27.733333 27.733333 0 1 0 0 55.466666h151.893333a27.733333 27.733333 0 0 0 0-55.466666z m317.568 0h-104.874667a27.733333 27.733333 0 0 0 0 55.466666h104.874667a27.733333 27.733333 0 0 0 0-55.466666z" fill="#000000" p-id="1963"></path><path d="M870.314667 867.712v-342.186667a27.733333 27.733333 0 0 0-12.928-23.466666l-308.48-195.285334V155.648a27.733333 27.733333 0 0 0-41.472-24.021333L149.205333 335.061333a27.733333 27.733333 0 0 0-14.08 24.021334v508.629333H70.4a27.733333 27.733333 0 1 0 0 55.466667h869.290667a27.733333 27.733333 0 0 0 0-55.466667h-69.376z m-679.68 0V375.210667l302.933333-172.032v664.362666l-302.933333 0.170667z m358.4 0V372.992l265.984 168.277333v326.826667l-265.941334-0.384z" fill="#000000" p-id="1964"></path></svg>