<?xml version="1.0" standalone="no"?><!DOCTYPE svg PUBLIC "-//W3C//DTD SVG 1.1//EN" "http://www.w3.org/Graphics/SVG/1.1/DTD/svg11.dtd"><svg t="1713359161656" class="icon" viewBox="0 0 1024 1024" version="1.1" xmlns="http://www.w3.org/2000/svg" p-id="5559" xmlns:xlink="http://www.w3.org/1999/xlink" width="200" height="200"><path d="M903.5 1l-765 0C110.4 1 87 28 87 59.2l0 226.3 0 28.3 0 650.6c0 31.2 23.4 56.6 51.5 56.6l765 0c28.1 0 51.5-25.4 51.5-56.6L955 59.2C955 28 931.6 1 903.5 1zM903.4 970 138 970 138 307l765.5 0L903.4 970zM903.5 282 138 282 138 52l765.5 0L903.5 282z" fill="#231815" p-id="5560"></path><path d="M802 129l75 0 0 25-75 0 0-25Z" fill="#231815" p-id="5561"></path><path d="M700 129l76 0 0 25-76 0 0-25Z" fill="#231815" p-id="5562"></path><path d="M674 103 470 103l0 77 204 0L674 103zM649 154 495 154l0-25 154 0L649 154z" fill="#231815" p-id="5563"></path><path d="M519.4 868C656.5 868 768 756.5 768 619.4S656.5 370.8 519.4 370.8 270.8 482.3 270.8 619.4 382.3 868 519.4 868zM519.4 421.8c109 0 197.6 88.7 197.6 197.6S628.4 817 519.4 817s-197.6-88.7-197.6-197.6S410.4 421.8 519.4 421.8z" fill="#231815" p-id="5564"></path><path d="M519.4 750.1c72.1 0 130.7-58.6 130.7-130.7s-58.6-130.7-130.7-130.7c-72.1 0-130.7 58.6-130.7 130.7S447.3 750.1 519.4 750.1zM519.4 514.2c58 0 105.2 47.2 105.2 105.2 0 58-47.2 105.2-105.2 105.2s-105.2-47.2-105.2-105.2C414.2 561.4 461.4 514.2 519.4 514.2z" fill="#231815" p-id="5565"></path></svg>